<?xml version="1.0" standalone="no"?>
<!DOCTYPE svg PUBLIC "-//W3C//DTD SVG 20010904//EN"
 "http://www.w3.org/TR/2001/REC-SVG-20010904/DTD/svg10.dtd">
<svg version="1.0" xmlns="http://www.w3.org/2000/svg"
 width="107.000000pt" height="107.000000pt" viewBox="0 0 107.000000 107.000000"
 preserveAspectRatio="xMidYMid meet">
<metadata>
Created by potrace 1.15, written by Peter Selinger 2001-2017
</metadata>
<g transform="translate(0.000000,107.000000) scale(0.100000,-0.100000)"
fill="#000000" stroke="none">
<path d="M0 535 l0 -535 535 0 535 0 0 535 0 535 -535 0 -535 0 0 -535z m358
152 l3 -137 159 0 160 0 0 140 c0 118 2 140 15 140 13 0 15 -40 15 -300 0
-260 -2 -300 -15 -300 -13 0 -15 22 -15 140 l0 140 -160 0 -159 0 -3 -137 c-3
-122 -5 -138 -20 -141 -17 -3 -18 16 -18 291 0 161 3 297 7 301 21 21 28 -10
31 -137z"/>
</g>
</svg>
